<?xml version="1.0" encoding="UTF-8" standalone="no"?>
<!DOCTYPE svg PUBLIC "-//W3C//DTD SVG 1.1//EN"
 "http://www.w3.org/Graphics/SVG/1.1/DTD/svg11.dtd">
<!-- Generated by graphviz version 2.38.0 (20140413.2041)
 -->
<!-- Title: %3 Pages: 1 -->
<svg width="715pt" height="674pt"
 viewBox="0.00 0.00 714.79 674.42" xmlns="http://www.w3.org/2000/svg" xmlns:xlink="http://www.w3.org/1999/xlink">
<g id="graph0" class="graph" transform="scale(1 1) rotate(0) translate(4 670.418)">
<title>%3</title>
<polygon fill="white" stroke="none" points="-4,4 -4,-670.418 710.795,-670.418 710.795,4 -4,4"/>
<!-- example.com/hello -->
<g id="node1" class="node"><title>example.com/hello</title>
<polygon fill="#e94762" stroke="none" points="453.363,-320.802 309.363,-320.802 309.363,-284.802 453.363,-284.802 453.363,-320.802"/>
<text text-anchor="middle" x="381.363" y="-299.102" font-family="Helvetica,sans-Serif" font-size="14.00">example.com/hello</text>
</g>
<!-- github.com/go&#45;modules&#45;by&#45;example&#45;forks/incomplete -->
<g id="node2" class="node"><title>github.com/go&#45;modules&#45;by&#45;example&#45;forks/incomplete</title>
<text text-anchor="middle" x="516.795" y="-343.107" font-family="Helvetica,sans-Serif" font-size="14.00">github.com/go&#45;modules&#45;by&#45;example&#45;forks/incomplete</text>
</g>
<!-- example.com/hello&#45;&gt;github.com/go&#45;modules&#45;by&#45;example&#45;forks/incomplete -->
<g id="edge1" class="edge"><title>example.com/hello&#45;&gt;github.com/go&#45;modules&#45;by&#45;example&#45;forks/incomplete</title>
<path fill="none" stroke="black" d="M436.839,-320.828C441.61,-322.378 446.465,-323.955 451.305,-325.528"/>
<polygon fill="black" stroke="black" points="450.594,-328.977 461.186,-328.738 452.757,-322.32 450.594,-328.977"/>
</g>
<!-- github.com/kr/pretty -->
<g id="node3" class="node"><title>github.com/kr/pretty</title>
<text text-anchor="middle" x="465.065" y="-414.307" font-family="Helvetica,sans-Serif" font-size="14.00">github.com/kr/pretty</text>
</g>
<!-- example.com/hello&#45;&gt;github.com/kr/pretty -->
<g id="edge2" class="edge"><title>example.com/hello&#45;&gt;github.com/kr/pretty</title>
<path fill="none" stroke="black" d="M394.442,-320.803C408.242,-339.798 430.134,-369.929 445.886,-391.611"/>
<polygon fill="black" stroke="black" points="443.092,-393.72 451.802,-399.753 448.756,-389.605 443.092,-393.72"/>
</g>
<!-- github.com/sirupsen/logrus -->
<g id="node4" class="node"><title>github.com/sirupsen/logrus</title>
<text text-anchor="middle" x="245.932" y="-255.098" font-family="Helvetica,sans-Serif" font-size="14.00">github.com/sirupsen/logrus</text>
</g>
<!-- example.com/hello&#45;&gt;github.com/sirupsen/logrus -->
<g id="edge3" class="edge"><title>example.com/hello&#45;&gt;github.com/sirupsen/logrus</title>
<path fill="none" stroke="black" d="M325.887,-284.777C321.116,-283.227 316.261,-281.65 311.422,-280.077"/>
<polygon fill="black" stroke="black" points="312.133,-276.628 301.54,-276.866 309.969,-283.285 312.133,-276.628"/>
</g>
<!-- golang.org/x/tools -->
<g id="node5" class="node"><title>golang.org/x/tools</title>
<text text-anchor="middle" x="516.795" y="-255.098" font-family="Helvetica,sans-Serif" font-size="14.00">golang.org/x/tools</text>
</g>
<!-- example.com/hello&#45;&gt;golang.org/x/tools -->
<g id="edge4" class="edge"><title>example.com/hello&#45;&gt;golang.org/x/tools</title>
<path fill="none" stroke="black" d="M436.839,-284.777C441.61,-283.227 446.465,-281.65 451.305,-280.077"/>
<polygon fill="black" stroke="black" points="452.757,-283.285 461.186,-276.866 450.594,-276.628 452.757,-283.285"/>
</g>
<!-- github.com/kr/text -->
<g id="node6" class="node"><title>github.com/kr/text</title>
<text text-anchor="middle" x="548.766" y="-529.512" font-family="Helvetica,sans-Serif" font-size="14.00">github.com/kr/text</text>
</g>
<!-- github.com/kr/pretty&#45;&gt;github.com/kr/text -->
<g id="edge5" class="edge"><title>github.com/kr/pretty&#45;&gt;github.com/kr/text</title>
<path fill="none" stroke="black" d="M478.143,-436.008C491.944,-455.003 513.835,-485.134 529.588,-506.816"/>
<polygon fill="black" stroke="black" points="526.794,-508.925 535.503,-514.958 532.457,-504.81 526.794,-508.925"/>
</g>
<!-- github.com/davecgh/go&#45;spew -->
<g id="node8" class="node"><title>github.com/davecgh/go&#45;spew</title>
<text text-anchor="middle" x="381.363" y="-583.905" font-family="Helvetica,sans-Serif" font-size="14.00">github.com/davecgh/go&#45;spew</text>
</g>
<!-- github.com/sirupsen/logrus&#45;&gt;github.com/davecgh/go&#45;spew -->
<g id="edge7" class="edge"><title>github.com/sirupsen/logrus&#45;&gt;github.com/davecgh/go&#45;spew</title>
<path fill="none" stroke="black" d="M253.406,-276.945C275.882,-331.512 342.961,-494.371 369.939,-559.87"/>
<polygon fill="black" stroke="black" points="366.867,-561.601 373.912,-569.515 373.34,-558.935 366.867,-561.601"/>
</g>
<!-- github.com/konsorten/go&#45;windows&#45;terminal&#45;sequences -->
<g id="node9" class="node"><title>github.com/konsorten/go&#45;windows&#45;terminal&#45;sequences</title>
<text text-anchor="middle" x="213.961" y="-529.512" font-family="Helvetica,sans-Serif" font-size="14.00">github.com/konsorten/go&#45;windows&#45;terminal&#45;sequences</text>
</g>
<!-- github.com/sirupsen/logrus&#45;&gt;github.com/konsorten/go&#45;windows&#45;terminal&#45;sequences -->
<g id="edge8" class="edge"><title>github.com/sirupsen/logrus&#45;&gt;github.com/konsorten/go&#45;windows&#45;terminal&#45;sequences</title>
<path fill="none" stroke="black" d="M243.834,-276.803C238.392,-323.515 223.789,-448.857 217.229,-505.156"/>
<polygon fill="black" stroke="black" points="213.747,-504.803 216.066,-515.141 220.7,-505.613 213.747,-504.803"/>
</g>
<!-- github.com/pmezard/go&#45;difflib -->
<g id="node10" class="node"><title>github.com/pmezard/go&#45;difflib</title>
<text text-anchor="middle" x="110.5" y="-387.111" font-family="Helvetica,sans-Serif" font-size="14.00">github.com/pmezard/go&#45;difflib</text>
</g>
<!-- github.com/sirupsen/logrus&#45;&gt;github.com/pmezard/go&#45;difflib -->
<g id="edge9" class="edge"><title>github.com/sirupsen/logrus&#45;&gt;github.com/pmezard/go&#45;difflib</title>
<path fill="none" stroke="black" d="M227.384,-276.877C203.911,-299.758 163.337,-339.308 136.707,-365.266"/>
<polygon fill="black" stroke="black" points="133.976,-363.04 129.258,-372.527 138.862,-368.053 133.976,-363.04"/>
</g>
<!-- github.com/stretchr/objx -->
<g id="node11" class="node"><title>github.com/stretchr/objx</title>
<text text-anchor="middle" x="110.5" y="-211.094" font-family="Helvetica,sans-Serif" font-size="14.00">github.com/stretchr/objx</text>
</g>
<!-- github.com/sirupsen/logrus&#45;&gt;github.com/stretchr/objx -->
<g id="edge10" class="edge"><title>github.com/sirupsen/logrus&#45;&gt;github.com/stretchr/objx</title>
<path fill="none" stroke="black" d="M190.456,-240.773C185.685,-239.223 180.83,-237.645 175.99,-236.073"/>
<polygon fill="black" stroke="black" points="176.701,-232.624 166.109,-232.862 174.538,-239.281 176.701,-232.624"/>
</g>
<!-- github.com/stretchr/testify -->
<g id="node12" class="node"><title>github.com/stretchr/testify</title>
<text text-anchor="middle" x="213.961" y="-68.6924" font-family="Helvetica,sans-Serif" font-size="14.00">github.com/stretchr/testify</text>
</g>
<!-- github.com/sirupsen/logrus&#45;&gt;github.com/stretchr/testify -->
<g id="edge11" class="edge"><title>github.com/sirupsen/logrus&#45;&gt;github.com/stretchr/testify</title>
<path fill="none" stroke="black" d="M242.808,-240.585C237.207,-207.928 225.421,-139.21 218.778,-100.479"/>
<polygon fill="black" stroke="black" points="222.19,-99.6691 217.05,-90.4047 215.291,-100.852 222.19,-99.6691"/>
</g>
<!-- golang.org/x/crypto -->
<g id="node13" class="node"><title>golang.org/x/crypto</title>
<text text-anchor="middle" x="381.363" y="-14.3" font-family="Helvetica,sans-Serif" font-size="14.00">golang.org/x/crypto</text>
</g>
<!-- github.com/sirupsen/logrus&#45;&gt;golang.org/x/crypto -->
<g id="edge12" class="edge"><title>github.com/sirupsen/logrus&#45;&gt;golang.org/x/crypto</title>
<path fill="none" stroke="black" d="M256.111,-240.699C279.69,-198.776 338.162,-94.8123 366.068,-45.1942"/>
<polygon fill="black" stroke="black" points="369.214,-46.7408 371.066,-36.309 363.113,-43.3093 369.214,-46.7408"/>
</g>
<!-- golang.org/x/sys -->
<g id="node14" class="node"><title>golang.org/x/sys</title>
<text text-anchor="middle" x="548.766" y="-68.6924" font-family="Helvetica,sans-Serif" font-size="14.00">golang.org/x/sys</text>
</g>
<!-- github.com/sirupsen/logrus&#45;&gt;golang.org/x/sys -->
<g id="edge13" class="edge"><title>github.com/sirupsen/logrus&#45;&gt;golang.org/x/sys</title>
<path fill="none" stroke="black" d="M275.244,-240.755C330.421,-206.792 449.651,-133.401 510.845,-95.7343"/>
<polygon fill="black" stroke="black" points="512.756,-98.6677 519.438,-90.4451 509.087,-92.7065 512.756,-98.6677"/>
</g>
<!-- github.com/kr/pty -->
<g id="node7" class="node"><title>github.com/kr/pty</title>
<text text-anchor="middle" x="632.467" y="-644.718" font-family="Helvetica,sans-Serif" font-size="14.00">github.com/kr/pty</text>
</g>
<!-- github.com/kr/text&#45;&gt;github.com/kr/pty -->
<g id="edge6" class="edge"><title>github.com/kr/text&#45;&gt;github.com/kr/pty</title>
<path fill="none" stroke="black" d="M561.844,-551.213C575.645,-570.208 597.536,-600.339 613.289,-622.021"/>
<polygon fill="black" stroke="black" points="610.495,-624.13 619.205,-630.163 616.158,-620.015 610.495,-624.13"/>
</g>
</g>
</svg>
